<svg width="48" height="48" viewBox="0 0 48 48" fill="none" xmlns="http://www.w3.org/2000/svg">
<g clip-path="url(#clip0_429_4022)">
<path d="M31.9997 16.0003H29.333C29.333 13.0537 26.9463 10.667 23.9997 10.667C21.053 10.667 18.6663 13.0537 18.6663 16.0003H15.9997C14.533 16.0003 13.333 17.2003 13.333 18.667V34.667C13.333 36.1337 14.533 37.3337 15.9997 37.3337H31.9997C33.4663 37.3337 34.6663 36.1337 34.6663 34.667V18.667C34.6663 17.2003 33.4663 16.0003 31.9997 16.0003ZM23.9997 13.3337C25.4663 13.3337 26.6663 14.5337 26.6663 16.0003H21.333C21.333 14.5337 22.533 13.3337 23.9997 13.3337ZM31.9997 34.667H15.9997V18.667H18.6663V21.3337C18.6663 22.067 19.2663 22.667 19.9997 22.667C20.733 22.667 21.333 22.067 21.333 21.3337V18.667H26.6663V21.3337C26.6663 22.067 27.2663 22.667 27.9997 22.667C28.733 22.667 29.333 22.067 29.333 21.3337V18.667H31.9997V34.667Z" fill="#002F52"/>
</g>
<defs>
<clipPath id="clip0_429_4022">
<rect width="32" height="32" fill="white" transform="translate(8 8)"/>
</clipPath>
</defs>
</svg>
