<svg width="48" height="48" viewBox="0 0 48 48" fill="none" xmlns="http://www.w3.org/2000/svg">
<g clip-path="url(#clip0_429_4020)">
<path d="M29.9993 12C27.6793 12 25.4527 13.08 23.9993 14.7867C22.546 13.08 20.3193 12 17.9993 12C13.8927 12 10.666 15.2267 10.666 19.3333C10.666 24.3733 15.1993 28.48 22.066 34.72L23.9993 36.4667L25.9327 34.7067C32.7993 28.48 37.3327 24.3733 37.3327 19.3333C37.3327 15.2267 34.106 12 29.9993 12ZM24.1327 32.7333L23.9993 32.8667L23.866 32.7333C17.5193 26.9867 13.3327 23.1867 13.3327 19.3333C13.3327 16.6667 15.3327 14.6667 17.9993 14.6667C20.0527 14.6667 22.0527 15.9867 22.7593 17.8133H25.2527C25.946 15.9867 27.946 14.6667 29.9993 14.6667C32.666 14.6667 34.666 16.6667 34.666 19.3333C34.666 23.1867 30.4794 26.9867 24.1327 32.7333Z" fill="#002F52"/>
</g>
<defs>
<clipPath id="clip0_429_4020">
<rect width="32" height="32" fill="white" transform="translate(8 8)"/>
</clipPath>
</defs>
</svg>
